<svg width="50" height="50" viewBox="0 0 50 50" fill="none" xmlns="http://www.w3.org/2000/svg">
<rect width="50" height="50" fill="white"/>
<g clip-path="url(#clip0_179745_170400)">
<path d="M25 7C15.0598 7 7 15.0598 7 25C7 34.9402 15.0598 43 25 43C34.9402 43 43 34.9402 43 25C43 15.0598 34.9402 7 25 7ZM25 39.9464C16.7473 39.9464 10.0536 33.2527 10.0536 25C10.0536 16.7473 16.7473 10.0536 25 10.0536C33.2527 10.0536 39.9464 16.7473 39.9464 25C39.9464 33.2527 33.2527 39.9464 25 39.9464Z" fill="black" fill-opacity="0.85"/>
<path d="M32.0195 30.0828L26.29 25.9404V15.9962C26.29 15.8194 26.1454 15.6748 25.9686 15.6748H24.036C23.8592 15.6748 23.7146 15.8194 23.7146 15.9962V27.0614C23.7146 27.1659 23.7628 27.2623 23.8472 27.3226L30.4927 32.1681C30.6374 32.2726 30.8383 32.2404 30.9427 32.0998L32.0918 30.5328C32.1963 30.3842 32.1642 30.1833 32.0195 30.0828Z" fill="black" fill-opacity="0.85"/>
</g>
<defs>
<clipPath id="clip0_179745_170400">
<rect width="36" height="36" fill="white" transform="translate(7 7)"/>
</clipPath>
</defs>
</svg>
