<svg width="50" height="50" viewBox="0 0 50 50" fill="none" xmlns="http://www.w3.org/2000/svg">
<rect width="50" height="50" fill="white"/>
<path d="M41.8705 15.3724C41.332 14.1254 40.5554 12.9953 39.5844 12.0456C38.6126 11.093 37.4668 10.3359 36.2094 9.81565C34.9055 9.27402 33.507 8.99678 32.0951 9.00003C30.1143 9.00003 28.1817 9.54244 26.5022 10.567C26.1004 10.8121 25.7188 11.0813 25.3571 11.3746C24.9955 11.0813 24.6138 10.8121 24.2121 10.567C22.5326 9.54244 20.6 9.00003 18.6192 9.00003C17.1929 9.00003 15.8107 9.27324 14.5049 9.81565C13.2433 10.338 12.1063 11.0893 11.1299 12.0456C10.1576 12.9943 9.38085 14.1246 8.84375 15.3724C8.28527 16.6701 8 18.0482 8 19.4665C8 20.8045 8.27321 22.1987 8.81563 23.617C9.26964 24.8023 9.92054 26.0317 10.7522 27.2732C12.0701 29.238 13.8821 31.2871 16.1321 33.3643C19.8607 36.8076 23.5531 39.1862 23.7098 39.2826L24.6621 39.8933C25.0839 40.1625 25.6263 40.1625 26.0482 39.8933L27.0004 39.2826C27.1571 39.1822 30.8455 36.8076 34.5781 33.3643C36.8281 31.2871 38.6402 29.238 39.958 27.2732C40.7897 26.0317 41.4446 24.8023 41.8946 23.617C42.4371 22.1987 42.7103 20.8045 42.7103 19.4665C42.7143 18.0482 42.429 16.6701 41.8705 15.3724V15.3724ZM25.3571 36.7152C25.3571 36.7152 11.0536 27.5505 11.0536 19.4665C11.0536 15.3724 14.4406 12.0536 18.6192 12.0536C21.5563 12.0536 24.1036 13.6929 25.3571 16.0875C26.6107 13.6929 29.158 12.0536 32.0951 12.0536C36.2737 12.0536 39.6607 15.3724 39.6607 19.4665C39.6607 27.5505 25.3571 36.7152 25.3571 36.7152Z" fill="black" fill-opacity="0.85"/>
</svg>
