<svg width="50" height="50" viewBox="0 0 50 50" fill="none" xmlns="http://www.w3.org/2000/svg">
<rect width="50" height="50" fill="white"/>
<path d="M38.7116 15.9237C37.9552 14.1794 36.8646 12.6002 35.5013 11.275C34.1336 9.93786 32.5212 8.87657 30.7522 8.14911C28.9121 7.38571 26.9594 7 24.9464 7C22.9335 7 20.9808 7.38571 19.1406 8.14509C17.3607 8.88036 15.7656 9.93304 14.3915 11.271C13.0292 12.5969 11.9387 14.176 11.1812 15.9196C10.3978 17.7277 10 19.6482 10 21.625C10 24.4616 10.679 27.2862 12.0129 30.0103C13.0857 32.2 14.5844 34.3335 16.4728 36.3625C19.6991 39.8259 23.0821 41.9433 24.0424 42.5098C24.315 42.6708 24.6259 42.7555 24.9424 42.7549C25.2558 42.7549 25.5652 42.6746 25.8424 42.5098C26.8027 41.9433 30.1857 39.8259 33.4121 36.3625C35.3004 34.3375 36.7991 32.2 37.8719 30.0103C39.2138 27.2902 39.8929 24.4696 39.8929 21.629C39.8929 19.6522 39.4951 17.7317 38.7116 15.9237ZM24.9464 39.6732C22.2987 37.9897 12.8929 31.3241 12.8929 21.629C12.8929 18.4991 14.1424 15.558 16.4125 13.3402C18.6906 11.1183 21.7201 9.89286 24.9464 9.89286C28.1728 9.89286 31.2022 11.1183 33.4804 13.3442C35.7504 15.558 37 18.4991 37 21.629C37 31.3241 27.5942 37.9897 24.9464 39.6732ZM24.9464 14.875C21.0411 14.875 17.875 18.0411 17.875 21.9464C17.875 25.8518 21.0411 29.0179 24.9464 29.0179C28.8518 29.0179 32.0179 25.8518 32.0179 21.9464C32.0179 18.0411 28.8518 14.875 24.9464 14.875ZM28.1286 25.1286C27.7112 25.5471 27.2152 25.8791 26.6691 26.1052C26.123 26.3314 25.5375 26.4473 24.9464 26.4464C23.7451 26.4464 22.6161 25.9763 21.7643 25.1286C21.3457 24.7112 21.0138 24.2152 20.7876 23.6691C20.5615 23.123 20.4455 22.5375 20.4464 21.9464C20.4464 20.7451 20.9165 19.6161 21.7643 18.7643C22.6161 17.9125 23.7451 17.4464 24.9464 17.4464C26.1478 17.4464 27.2768 17.9125 28.1286 18.7643C28.9804 19.6161 29.4464 20.7451 29.4464 21.9464C29.4464 23.1478 28.9804 24.2768 28.1286 25.1286Z" fill="black" fill-opacity="0.85"/>
</svg>
