<svg width="50" height="50" viewBox="0 0 50 50" fill="none" xmlns="http://www.w3.org/2000/svg">
<rect width="50" height="50" fill="white"/>
<path d="M39.7406 14.0906L35.4616 9.81563C34.9393 9.2933 34.2402 9 33.5009 9C32.7616 9 32.0625 9.28929 31.5402 9.81563L26.9317 14.4161C26.4094 14.9384 26.1161 15.6415 26.1161 16.3808C26.1161 17.1241 26.4054 17.8192 26.9317 18.3455L30.5317 21.9496C29.7116 23.8604 28.5332 25.5966 27.0603 27.0643C25.5857 28.5469 23.8621 29.7161 21.9496 30.5438L18.3496 26.9397C17.8272 26.4174 17.1281 26.1241 16.3888 26.1241C16.0242 26.1228 15.6629 26.1942 15.3263 26.3343C14.9896 26.4743 14.6842 26.6802 14.4281 26.9397L9.81563 31.5402C9.2933 32.0625 9 32.7656 9 33.5049C9 34.2482 9.28929 34.9433 9.81563 35.4696L14.0906 39.7446C14.9826 40.6366 16.2121 41.1469 17.4737 41.1469C17.7348 41.1469 17.9879 41.1268 18.2451 41.0826C23.5647 40.2067 28.8442 37.3741 33.1071 33.1152C37.3661 28.8482 40.1946 23.5688 41.0786 18.2451C41.3317 16.7344 40.8254 15.1795 39.7406 14.0906V14.0906ZM38.2299 17.767C37.4464 22.504 34.8991 27.229 31.0621 31.0661C27.225 34.9031 22.504 37.4504 17.767 38.2339C17.1723 38.3344 16.5616 38.1335 16.1277 37.7036L11.929 33.5049L16.3808 29.0491L21.1942 33.8705L21.2304 33.9067L22.0982 33.5853C24.7296 32.6178 27.1192 31.0897 29.1013 29.1069C31.0834 27.1241 32.6107 24.734 33.5772 22.1022L33.8987 21.2344L29.0451 16.3848L33.4969 11.929L37.6955 16.1277C38.1295 16.5616 38.3304 17.1723 38.2299 17.767Z" fill="black" fill-opacity="0.85"/>
</svg>
